<?xml version="1.0" encoding="UTF-8" standalone="no"?>
<svg
   xmlns:dc="http://purl.org/dc/elements/1.1/"
   xmlns:cc="http://creativecommons.org/ns#"
   xmlns:rdf="http://www.w3.org/1999/02/22-rdf-syntax-ns#"
   xmlns:svg="http://www.w3.org/2000/svg"
   xmlns="http://www.w3.org/2000/svg"
   xmlns:sodipodi="http://sodipodi.sourceforge.net/DTD/sodipodi-0.dtd"
   xmlns:inkscape="http://www.inkscape.org/namespaces/inkscape"
   viewBox="0 0 512 512"
   style="height: 512px; width: 512px;"
   id="svg3388"
   version="1.1"
   inkscape:version="0.91 r13725"
   sodipodi:docname="greek-temple.svg">
  <metadata
     id="metadata3400">
    <rdf:RDF>
      <cc:Work
         rdf:about="">
        <dc:format>image/svg+xml</dc:format>
        <dc:type
           rdf:resource="http://purl.org/dc/dcmitype/StillImage" />
        <dc:title></dc:title>
      </cc:Work>
    </rdf:RDF>
  </metadata>
  <defs
     id="defs3398" />
  <sodipodi:namedview
     pagecolor="#ffffff"
     bordercolor="#666666"
     borderopacity="1"
     objecttolerance="10"
     gridtolerance="10"
     guidetolerance="10"
     inkscape:pageopacity="0"
     inkscape:pageshadow="2"
     inkscape:window-width="1301"
     inkscape:window-height="744"
     id="namedview3396"
     showgrid="false"
     inkscape:zoom="1.1855469"
     inkscape:cx="248.59903"
     inkscape:cy="256"
     inkscape:window-x="65"
     inkscape:window-y="24"
     inkscape:window-maximized="1"
     inkscape:current-layer="svg3388" />
  <g
     id="g3402"
     transform="translate(0,0)"
     class=""
     style="touch-action:none;stroke:#ffffff;stroke-opacity:1;stroke-width:45.49999847;stroke-miterlimit:4;stroke-dasharray:none;stroke-linejoin:round;fill:#ffffff">
    <path
       id="path3404"
       d="M256 26.2L52 135h408L256 26.2zM73 153v14h366v-14H73zm16 32v206h30V185H89zm101.334 0v206h30V185h-30zm101.332 0v206h30V185h-30zM393 185v206h30V185h-30zM73 409v30h366v-30H73zm-32 48v30h430v-30H41z"
       fill="#fff"
       style="stroke:#ffffff;stroke-opacity:1;stroke-width:45.49999847;stroke-miterlimit:4;stroke-dasharray:none;stroke-linejoin:round;fill:#ffffff" />
  </g>
  <g
     class=""
     transform="translate(0,0)"
     style="touch-action:none;fill:#ff0000"
     id="g3392">
    <path
       fill="#fff"
       d="M256 26.2L52 135h408L256 26.2zM73 153v14h366v-14H73zm16 32v206h30V185H89zm101.334 0v206h30V185h-30zm101.332 0v206h30V185h-30zM393 185v206h30V185h-30zM73 409v30h366v-30H73zm-32 48v30h430v-30H41z"
       id="path3394"
       style="fill:#ff0000" />
  </g>
</svg>
